<?xml version="1.0" standalone="no"?>
<!DOCTYPE svg PUBLIC "-//W3C//DTD SVG 20010904//EN"
 "http://www.w3.org/TR/2001/REC-SVG-20010904/DTD/svg10.dtd">
<svg version="1.0" xmlns="http://www.w3.org/2000/svg"
 width="518.000000pt" height="518.000000pt" viewBox="0 0 518.000000 518.000000"
 preserveAspectRatio="xMidYMid meet">
<metadata>
Created by potrace 1.11, written by Peter Selinger 2001-2013
</metadata>
<g transform="translate(0.000000,518.000000) scale(0.100000,-0.100000)"
fill="#000000" stroke="none">
<path d="M810 5130 c-23 -27 -194 -203 -381 -391 -186 -188 -339 -346 -339
-351 0 -9 91 -165 132 -227 10 -14 21 -33 24 -41 4 -8 17 -28 29 -45 18 -25
135 -211 198 -315 18 -28 19 -88 19 -1392 l0 -1363 21 -30 c12 -16 33 -50 46
-75 14 -25 28 -47 31 -50 4 -3 22 -30 40 -60 18 -30 53 -85 77 -122 23 -37 43
-71 43 -76 0 -5 7 -15 16 -23 8 -7 29 -40 45 -73 16 -34 52 -97 80 -141 89
-142 137 -219 175 -283 39 -63 56 -74 72 -46 5 8 89 98 188 198 405 413 530
542 546 562 18 22 16 26 -103 216 -67 106 -141 222 -164 258 -23 36 -58 95
-77 131 l-36 66 0 1368 c0 1138 -2 1371 -13 1379 -8 6 -23 27 -33 46 -11 19
-37 62 -58 95 -94 148 -181 286 -223 355 -216 350 -298 480 -306 480 -4 0 -26
-22 -49 -50z"/>
<path d="M2350 5061 c-63 -66 -238 -244 -387 -396 -296 -301 -284 -283 -232
-339 11 -11 19 -24 19 -28 0 -5 21 -42 48 -83 26 -40 59 -93 73 -117 15 -24
64 -101 109 -173 45 -71 91 -145 103 -163 20 -34 20 -41 20 -1395 0 -1053 2
-1365 12 -1377 18 -22 113 -184 121 -206 4 -10 25 -46 46 -79 100 -157 181
-287 223 -355 26 -41 66 -106 90 -145 24 -38 60 -98 81 -133 21 -34 42 -62 47
-62 5 0 18 10 29 23 31 36 196 206 461 475 299 303 294 297 275 320 -9 9 -34
49 -57 87 -23 39 -109 176 -190 305 l-148 235 -1 1367 c0 1051 -3 1370 -12
1380 -19 21 -98 149 -120 194 -11 23 -45 82 -76 130 -31 49 -68 109 -83 133
-14 24 -42 69 -62 100 -20 31 -87 137 -148 236 -62 99 -115 181 -119 182 -4 2
-59 -51 -122 -116z"/>
<path d="M3850 4949 c-124 -128 -298 -306 -388 -397 -156 -158 -162 -166 -147
-186 8 -12 31 -50 52 -86 20 -36 42 -70 49 -77 7 -7 28 -41 49 -75 67 -116
112 -189 128 -206 8 -9 36 -57 62 -106 l48 -88 0 -1361 0 -1361 21 -32 c20
-31 116 -184 156 -249 10 -16 56 -91 104 -165 47 -74 106 -169 131 -210 25
-41 66 -106 90 -145 24 -38 61 -98 82 -132 20 -35 41 -63 46 -63 9 0 57 49 57
59 0 3 162 169 360 368 355 359 372 378 340 403 -4 3 -26 37 -49 75 -23 39
-64 104 -91 145 -27 41 -53 82 -57 91 -10 20 -108 175 -153 242 l-35 52 -1
1366 -1 1365 -52 85 c-29 46 -93 147 -142 224 -49 77 -103 167 -119 200 -28
55 -58 105 -145 240 -18 28 -61 96 -96 153 -34 56 -65 102 -69 102 -3 0 -107
-104 -230 -231z"/>
</g>
</svg>
